<?xml version="1.0" encoding="utf-8"?>
<!-- Generator: Adobe Illustrator 22.0.1, SVG Export Plug-In . SVG Version: 6.00 Build 0)  -->
<svg version="1.1" xmlns="http://www.w3.org/2000/svg" xmlns:xlink="http://www.w3.org/1999/xlink" x="0px" y="0px"
	 viewBox="0 0 432.8 300" style="enable-background:new 0 0 432.8 300;" xml:space="preserve">
<style type="text/css">
	.st0{fill:#DADADA;}
	.st1{fill:#FFFFFF;}
	.st2{opacity:0.85;fill:#DADADA;}
	.st3{fill:#27AACB;}
</style>
<g id="Layer_3">
</g>
<g id="Layer_2">
</g>
<g id="Layer_1">
	<g id="Logo">
		<g>
			<g>
				<path class="st0" d="M314.2,181.5v11.2c0,3.5-2.9,6.4-6.4,6.4h-7.4l0,3.6l0,2.9c3.7,0.3,7,4.1,7,7.1v2.6c0,4.1-3.8,7.4-8.5,7.5
					c0,0,0,0,0,0c-0.4,0-21.6,0.1-45.6,0.1c-24.1,0.1-51,0.1-63,0.1h0c-8.1,0-19.7-1.6-28.8-9.1c-14.2-11.8-34.4-10.8-42.9-9.7
					v-36.1c0-20.2,11.9-34.3,29.7-37.5c18-3.3,29.9-9.2,35.2-17.5c3.7-5.7,8.6-12.4,13.3-18.8c8.2-11.1,16.7-22.6,20.4-31.4
					c0.1-0.1,0.1-0.2,0.1-0.4c2-6.9,5.4-20.9,6.8-26.7c7.9,0.6,14.3,6.7,14.9,14.8c1,11.6,0.9,21.4-0.3,28.3c-0.5,1.8-2,4.9-3.6,8.1
					c-2.4,4.9-5.2,10.4-6.3,15.3c-0.5,2.3-0.3,6,0,11.2c1,15.9,2.5,42.6-15.7,52.2c-14.1,7.4-29.3,1.7-29.5,1.7
					c-1.7-0.7-3.5,0.2-4.2,1.9c-0.7,1.7,0.2,3.5,1.9,4.2c0.7,0.3,18,6.8,34.8-2c19.9-10.4,20.2-36.4,19.4-53.4l9.4,0
					c1.1,0,2.1-0.6,2.7-1.5c0.1,0,0.1,0,0.2,0c1.2-1.4,2.9-2.3,4.8-2.3h55c3.5,0,6.4,2.9,6.4,6.4v11.2c0,3.5-2.9,6.4-6.4,6.4h-0.1
					c0.6,2.2,1,4.4,1.2,6.6c3,0.5,5.2,3.1,5.2,6.2v11.2c0,3.4-4.2,6.1-7.5,6.3c0,0.5-0.1,1-0.1,1.5c-0.1,1.7,1.3,3.4,1.2,5.1h0.1
					C311.3,175.1,314.2,178,314.2,181.5z"/>
				<path d="M320.7,181.5v11.2c0,5.9-4,10.9-9.5,12.4c1.7,2.2,2.7,4.9,2.7,7.6v2.6c0,7.7-6.7,14-15,14c0,0,0,0,0,0
					c-2.2,0-84.8,0.3-108.6,0.3h0c-9.2,0-22.4-1.8-32.9-10.6c-15.6-13-41.1-7.8-41.3-7.7c-1,0.2-2,0-2.7-0.6
					c-0.8-0.6-1.2-1.5-1.2-2.5v-39.9c0-22.1,14.4-40.1,35-43.9c16-2.9,26.7-8,31-14.7c3.8-5.9,8.7-12.6,13.5-19.1
					c7.9-10.8,16.1-21.9,19.6-29.9c2.4-8.6,7.3-28.5,7.3-28.7c0.3-1.5,1.7-2.5,3.2-2.5h1.4c11.9,0,21.6,8.9,22.6,20.7
					c1,12.4,0.9,22.5-0.4,30c0,0.1,0,0.2,0,0.2c-0.6,2.5-2.2,5.7-4.1,9.5c-2.3,4.6-4.8,9.7-5.8,14c-0.3,1.2-0.1,4.3,0.1,7.8l8.5,0
					c2.3-2.3,5.5-3.7,9-3.7h55c7.1,0,12.8,5.8,12.8,12.9v11.2c0,3.8-1.7,7.2-4.3,9.6c2.7,2.4,4.3,5.8,4.3,9.6v11.2
					c0,3.8-1.7,7.2-4.3,9.6C319,174.2,320.7,177.7,320.7,181.5z M314.2,192.7v-11.2c0-3.5-2.9-6.4-6.4-6.4h-0.1
					c0.1-1.7-1.3-3.4-1.2-5.1c0-0.5,0.1-1,0.1-1.5c3.3-0.2,7.5-2.9,7.5-6.3v-11.2c0-3.1-2.3-5.7-5.2-6.2c-0.2-2.2-0.6-4.4-1.2-6.6
					h0.1c3.5,0,6.4-2.9,6.4-6.4v-11.2c0-3.5-2.9-6.4-6.4-6.4h-55c-1.9,0-3.7,0.9-4.8,2.3c-0.1,0-0.1,0-0.2,0
					c-0.6,0.9-1.6,1.5-2.7,1.5l-9.4,0c0.8,17,0.5,43-19.4,53.4c-16.8,8.8-34.1,2.3-34.8,2c-1.7-0.7-2.5-2.5-1.9-4.2
					c0.6-1.7,2.5-2.5,4.2-1.9c0.2,0,15.3,5.7,29.5-1.7c18.2-9.5,16.6-36.2,15.7-52.2c-0.3-5.2-0.5-8.9,0-11.2
					c1.1-4.9,3.9-10.5,6.3-15.3c1.6-3.2,3.1-6.3,3.6-8.1c1.2-6.8,1.3-16.6,0.3-28.3c-0.7-8-7-14.2-14.9-14.8
					c-1.4,5.7-4.9,19.8-6.8,26.7c0,0.1-0.1,0.3-0.1,0.4c-3.7,8.8-12.2,20.3-20.4,31.4c-4.7,6.4-9.6,13-13.3,18.8
					c-5.4,8.3-17.2,14.2-35.2,17.5c-17.8,3.3-29.2,16.6-29.7,37.5v36.1c8.5-1.1,28.7-2.1,42.9,9.7c9,7.5,20.6,9.1,28.8,9.1h0
					c12,0,39-0.1,63-0.1c24-0.1,45.2-0.1,45.6-0.1c0,0,0,0,0,0c4.7,0,8.5-3.4,8.5-7.5v-2.6c0-3-3.4-6.8-7-7.1l0-2.9l0-3.6h7.4
					C311.3,199.1,314.2,196.2,314.2,192.7z"/>
				<path class="st1" d="M147.4,139.3c20.1-3.4,35-6.8,41.1-16c4.2-6.3,8.2-15.2,13.6-22.3c9.3-12.3,18.9-25,23.2-34.8
					c0.1-0.1,0.1-0.3,0.2-0.4c2-6.7,1.9-29.8-1.3-30c-1.4,5.7-4.9,19.8-6.8,26.7c0,0.1-0.1,0.3-0.1,0.4
					c-3.7,8.8-12.2,20.3-20.4,31.4c-4.7,6.4-9.6,13-13.3,18.8c-5.4,8.3-17.2,14.2-35.2,17.5c-15.5,2.9-26,12.7-28.9,29.7
					C123.7,144.3,134.9,141.5,147.4,139.3z"/>
			</g>
			<g>
				<path class="st2" d="M300.5,114.3h-47.6c-1.9,0-3.7,0.9-4.8,2.3c-0.1,0-0.1,0-0.2,0c-0.6,0.9-1.6,1.5-2.7,1.5l-9.4,0
					c0.8,17,0.5,43-19.4,53.4c-13.4,7-30.3,3-35.7,1.5c16.2,8.9,34.1,7.9,45,3.3c3.4-1.4,7.5,0.2,7.2,4.8l0.4,17.8
					c0,7.1,5.8,12.8,12.8,12.8l53.3,0c5-0.1,6.2,5.2,5.1,9.1c0.9-0.8,2.1-2,2.5-3.4c0.8-2.8,0.1-6.1,0.1-6.1c0-0.1-0.1-0.2-0.1-0.4
					c-0.7-2.2-3.8-5.3-6.7-5.3L300.5,114.3z"/>
			</g>
			<g>
				<path class="st3" d="M314.2,181.5v11.2c0,3.5-2.9,6.4-6.4,6.4h-55c-3.5,0-6.4-2.9-6.4-6.4v-11.2c0-3.5,2.9-6.4,6.4-6.4h55
					C311.3,175.1,314.2,178,314.2,181.5z M308.8,188.4v-1.1c0-1.3-1.1-2.4-2.4-2.4h-29.9c-1.3,0-2.4,1.1-2.4,2.4v1.1
					c0,1.3,1.1,2.4,2.4,2.4h29.9C307.7,190.8,308.8,189.7,308.8,188.4z"/>
				<path class="st3" d="M314.2,151.1v11.2c0,3.5-2.9,6.4-6.4,6.4h-55c-3.5,0-6.4-2.9-6.4-6.4v-11.2c0-3.5,2.9-6.4,6.4-6.4h55
					C311.3,144.7,314.2,147.6,314.2,151.1z M308,157.2v-1.1c0-1.3-1.1-2.4-2.4-2.4h-29.9c-1.3,0-2.4,1.1-2.4,2.4v1.1
					c0,1.3,1.1,2.4,2.4,2.4h29.9C306.9,159.7,308,158.6,308,157.2z"/>
				<path class="st3" d="M314.2,120.7v11.2c0,3.5-2.9,6.4-6.4,6.4h-55c-3.5,0-6.4-2.9-6.4-6.4v-11.2c0-3.5,2.9-6.4,6.4-6.4h55
					C311.3,114.3,314.2,117.2,314.2,120.7z M308,126.2v-1.1c0-1.3-1.1-2.4-2.4-2.4h-29.9c-1.3,0-2.4,1.1-2.4,2.4v1.1
					c0,1.3,1.1,2.4,2.4,2.4h29.9C306.9,128.7,308,127.6,308,126.2z"/>
				<path class="st1" d="M249.6,134.5v-11.2c0-3.5,2.9-6.4,6.4-6.4h55c0.8,0,1.6,0.2,2.4,0.5c-1.1-1.8-3.1-3.1-5.4-3.1h-55
					c-3.5,0-6.4,2.9-6.4,6.4v11.2c0,2.7,1.7,4.9,4,5.9C249.9,136.8,249.6,135.7,249.6,134.5z"/>
				<path class="st1" d="M249.6,164.9v-11.2c0-3.5,2.9-6.4,6.4-6.4h55c0.8,0,1.6,0.2,2.4,0.5c-1.1-1.8-3.1-3.1-5.4-3.1h-55
					c-3.5,0-6.4,2.9-6.4,6.4v11.2c0,2.7,1.7,4.9,4,5.9C249.9,167.2,249.6,166.1,249.6,164.9z"/>
				<path class="st1" d="M249.6,195.3v-11.2c0-3.5,2.9-6.4,6.4-6.4h55c0.8,0,1.6,0.2,2.4,0.5c-1.1-1.8-3.1-3.1-5.4-3.1h-55
					c-3.5,0-6.4,2.9-6.4,6.4v11.2c0,2.7,1.7,4.9,4,5.9C249.9,197.6,249.6,196.5,249.6,195.3z"/>
				<path d="M320.7,181.5v11.2c0,7.1-5.8,12.8-12.8,12.8h-22.4v14.7c2.1,1.1,3.5,3.3,3.5,5.8c0,3.6-2.9,6.6-6.6,6.6
					c-3.6,0-6.6-2.9-6.6-6.6c0-2.4,1.3-4.4,3.2-5.6v-14.8h-26.1c-7.1,0-12.8-5.8-12.8-12.8v-11.2c0-3.8,1.7-7.2,4.3-9.6
					c-2.7-2.4-4.3-5.8-4.3-9.6v-11.2c0-3.8,1.7-7.2,4.3-9.6c-2.7-2.4-4.3-5.8-4.3-9.6v-11.2c0-7.1,5.8-12.9,12.8-12.9h55
					c7.1,0,12.8,5.8,12.8,12.9v11.2c0,3.8-1.7,7.2-4.3,9.6c2.7,2.4,4.3,5.8,4.3,9.6v11.2c0,3.8-1.7,7.2-4.3,9.6
					C319,174.2,320.7,177.7,320.7,181.5z M314.2,192.7v-11.2c0-3.5-2.9-6.4-6.4-6.4h-55c-3.5,0-6.4,2.9-6.4,6.4v11.2
					c0,3.5,2.9,6.4,5.8,6.4h55C311.3,199.1,314.2,196.2,314.2,192.7z M314.2,162.3v-11.2c0-3.5-2.9-6.4-6.4-6.4h-55
					c-3.5,0-6.4,2.9-6.4,6.4v11.2c0,3.5,2.9,6.4,6.4,6.4h55C311.3,168.7,314.2,165.8,314.2,162.3z M314.2,131.9v-11.2
					c0-3.5-2.9-6.4-6.4-6.4h-55c-3.5,0-6.4,2.9-6.4,6.4v11.2c0,3.5,2.9,6.4,6.4,6.4h55C311.3,138.2,314.2,135.4,314.2,131.9z"/>
				<path class="st1" d="M309.9,188.5v1.1c0,1.3-1.1,2.4-2.4,2.4h-29.9c-1.3,0-2.4-1.1-2.4-2.4v-1.1c0-1.3,1.1-2.4,2.4-2.4h29.9
					C308.8,186,309.9,187.1,309.9,188.5z"/>
				<path class="st1" d="M309.2,157.3v1.1c0,1.3-1.1,2.4-2.4,2.4h-29.9c-1.3,0-2.4-1.1-2.4-2.4v-1.1c0-1.3,1.1-2.4,2.4-2.4h29.9
					C308.1,154.9,309.2,156,309.2,157.3z"/>
				<path class="st1" d="M309.2,126.3v1.1c0,1.3-1.1,2.4-2.4,2.4h-29.9c-1.3,0-2.4-1.1-2.4-2.4v-1.1c0-1.3,1.1-2.4,2.4-2.4h29.9
					C308.1,123.9,309.2,125,309.2,126.3z"/>
				<g>
					<path d="M308.8,187.3v1.1c0,1.3-1.1,2.4-2.4,2.4h-29.9c-1.3,0-2.4-1.1-2.4-2.4v-1.1c0-1.3,1.1-2.4,2.4-2.4h29.9
						C307.7,184.8,308.8,185.9,308.8,187.3z"/>
					<path d="M308,156.1v1.1c0,1.3-1.1,2.4-2.4,2.4h-29.9c-1.3,0-2.4-1.1-2.4-2.4v-1.1c0-1.3,1.1-2.4,2.4-2.4h29.9
						C306.9,153.7,308,154.8,308,156.1z"/>
					<path d="M308,125.1v1.1c0,1.3-1.1,2.4-2.4,2.4h-29.9c-1.3,0-2.4-1.1-2.4-2.4v-1.1c0-1.3,1.1-2.4,2.4-2.4h29.9
						C306.9,122.7,308,123.8,308,125.1z"/>
				</g>
				<circle class="st1" cx="266.5" cy="126.6" r="3.2"/>
				<circle class="st1" cx="266.5" cy="157.6" r="3.2"/>
				<circle class="st1" cx="262.3" cy="188.8" r="3.2"/>
				<circle class="st1" cx="257.2" cy="126.6" r="3.2"/>
				<circle class="st1" cx="257.2" cy="157.6" r="3.2"/>
				<g>
					<circle cx="261.1" cy="187.9" r="3.2"/>
					<circle cx="265.3" cy="125.7" r="3.2"/>
					<circle cx="265.3" cy="156.7" r="3.2"/>
					<circle cx="256" cy="125.7" r="3.2"/>
					<circle cx="256" cy="156.7" r="3.2"/>
				</g>
			</g>
		</g>
		<g>
			<path class="st3" d="M148.9,263v4.7h-25.5V264l17.6-21.5h-17.3v-4.7h24.6v3.7L130.8,263H148.9z"/>
			<path class="st3" d="M169.7,257.2v10.5h-4.4v-4.6h-8.8v4.6h-4.4v-10.5c0-5.8,3.5-9,8.8-9S169.7,251.4,169.7,257.2z M165.3,259.5
				v-2.7c0-3.3-1.8-4.8-4.4-4.8c-2.7,0-4.4,1.6-4.4,4.8v2.7H165.3z"/>
			<path class="st3" d="M191.6,256.5v11.3h-4.4v-11.1c0-3.2-1.6-4.6-4.1-4.6c-2.6,0-4.5,1.6-4.5,4.9v10.8h-4.4v-19.2h4.3v2.3
				c1.3-1.8,3.3-2.7,5.9-2.7C188.9,248.2,191.6,251.1,191.6,256.5z"/>
			<path d="M220.4,255.5c0,4.3-3.2,6.9-8.3,6.9h-3.9v5.3h-4.4v-19.2h8.3C217.2,248.5,220.4,251.2,220.4,255.5z M215.9,255.5
				c0-2.1-1.4-3.3-4.1-3.3h-3.6v6.7h3.6C214.5,258.8,215.9,257.6,215.9,255.5z"/>
			<path d="M235.8,267.7l-3.7-5.4h-0.2H228v5.4h-4.4v-19.2h8.3c5.1,0,8.3,2.7,8.3,7c0,2.9-1.5,5-4,6.1l4.3,6.2H235.8z M231.6,252.1
				H228v6.7h3.6c2.7,0,4.1-1.3,4.1-3.3C235.7,253.4,234.3,252.1,231.6,252.1z"/>
			<path d="M242.5,258.1c0-5.7,4.4-9.9,10.5-9.9c6,0,10.5,4.2,10.5,9.9c0,5.7-4.5,9.9-10.5,9.9C246.9,268,242.5,263.8,242.5,258.1z
				 M259,258.1c0-3.6-2.6-6.1-6-6.1c-3.4,0-6,2.5-6,6.1c0,3.6,2.6,6.1,6,6.1C256.4,264.3,259,261.8,259,258.1z"/>
			<path d="M278.3,267.7l-4.6-6.7l-4.6,6.7H264l7.1-9.8l-6.8-9.4h5l4.4,6.2l4.3-6.2h4.8l-6.7,9.3l7.2,9.9H278.3z"/>
			<path d="M302.5,248.5v13.2c0,5.8-3.5,9-9.1,9c-3.3,0-6.1-1-7.9-2.6l1.7-3.3c1.7,1.4,3.8,2.1,6.1,2.1c3.2,0,4.7-1.6,4.7-5v-1.2
				c-1.3,1.6-3.2,2.4-5.4,2.4c-4.8,0-7.6-2.8-7.6-8v-6.6h4.4v6.3c0,3,1.5,4.6,4.1,4.6c2.6,0,4.5-1.5,4.5-4.9v-6H302.5z"/>
		</g>
	</g>
</g>
</svg>
