<?xml version="1.0" encoding="utf-8"?>
<!-- Generator: Adobe Illustrator 22.0.1, SVG Export Plug-In . SVG Version: 6.00 Build 0)  -->
<svg version="1.1" xmlns="http://www.w3.org/2000/svg" xmlns:xlink="http://www.w3.org/1999/xlink" x="0px" y="0px"
	 viewBox="0 0 202 202" style="enable-background:new 0 0 202 202;" xml:space="preserve">
<style type="text/css">
	.st0{fill:#27AACB;}
	.st1{fill:#FFFFFF;}
	.st2{fill:#DADADA;}
	.st3{opacity:0.85;fill:#DADADA;}
</style>
<g id="Layer_3">
</g>
<g id="Layer_2">
	<g id="Icon">
		<path class="st0" d="M167.3,64v74c0,16.2-13.1,29.4-29.4,29.4H64c-16.2,0-29.4-13.1-29.4-29.4V64c0-16.2,13.2-29.4,29.4-29.4h74
			C154.2,34.7,167.3,47.8,167.3,64z"/>
		<g>
			<path class="st1" d="M72.6,150.7v2.1H61v-1.7l8-9.8h-7.9v-2.1h11.2v1.7l-8,9.8H72.6z"/>
			<path class="st1" d="M82.1,148.1v4.8h-2v-2.1h-4v2.1h-2v-4.8c0-2.7,1.6-4.1,4-4.1C80.4,144,82.1,145.4,82.1,148.1z M80,149.1
				v-1.2c0-1.5-0.8-2.2-2-2.2c-1.2,0-2,0.7-2,2.2v1.2H80z"/>
			<path class="st1" d="M92,147.7v5.1h-2v-5.1c0-1.4-0.7-2.1-1.9-2.1c-1.2,0-2,0.7-2,2.2v4.9h-2v-8.7h2v1.1c0.6-0.8,1.5-1.2,2.7-1.2
				C90.7,144,92,145.3,92,147.7z"/>
			<path d="M105.1,147.3c0,1.9-1.5,3.2-3.8,3.2h-1.8v2.4h-2v-8.7h3.8C103.6,144.1,105.1,145.3,105.1,147.3z M103,147.3
				c0-1-0.6-1.5-1.9-1.5h-1.6v3h1.6C102.4,148.8,103,148.2,103,147.3z"/>
			<path d="M112.1,152.9l-1.7-2.4h-0.1h-1.8v2.4h-2v-8.7h3.8c2.3,0,3.8,1.2,3.8,3.2c0,1.3-0.7,2.3-1.8,2.8l2,2.8H112.1z
				 M110.2,145.8h-1.6v3h1.6c1.2,0,1.9-0.6,1.9-1.5C112,146.3,111.4,145.8,110.2,145.8z"/>
			<path d="M115.1,148.5c0-2.6,2-4.5,4.8-4.5c2.7,0,4.8,1.9,4.8,4.5c0,2.6-2,4.5-4.8,4.5C117.1,153,115.1,151.1,115.1,148.5z
				 M122.6,148.5c0-1.7-1.2-2.8-2.7-2.8c-1.6,0-2.7,1.1-2.7,2.8s1.2,2.8,2.7,2.8C121.5,151.3,122.6,150.2,122.6,148.5z"/>
			<path d="M131.4,152.9l-2.1-3l-2.1,3h-2.3l3.2-4.4l-3.1-4.3h2.3l2,2.8l2-2.8h2.2l-3,4.2l3.3,4.5H131.4z"/>
			<path d="M142.4,144.1v6c0,2.7-1.6,4.1-4.1,4.1c-1.5,0-2.8-0.4-3.6-1.2l0.8-1.5c0.8,0.6,1.7,1,2.8,1c1.4,0,2.2-0.7,2.2-2.3v-0.5
				c-0.6,0.7-1.4,1.1-2.5,1.1c-2.2,0-3.4-1.3-3.4-3.7v-3h2v2.9c0,1.4,0.7,2.1,1.9,2.1c1.2,0,2-0.7,2-2.2v-2.7H142.4z"/>
		</g>
		<g>
			<g>
				<path class="st2" d="M143.8,113.8v4.9c0,1.5-1.3,2.8-2.8,2.8h-3.3l0,1.6l0,1.3c1.6,0.1,3.1,1.8,3.1,3.1v1.2
					c0,1.8-1.7,3.3-3.7,3.3c0,0,0,0,0,0c-0.2,0-9.5,0-20,0.1c-10.6,0-22.4,0.1-27.7,0.1h0c-3.6,0-8.7-0.7-12.6-4
					c-6.2-5.2-15.1-4.7-18.8-4.3v-15.8c0-8.9,5.2-15,13-16.5c7.9-1.5,13.1-4,15.5-7.7c1.6-2.5,3.8-5.4,5.8-8.2
					c3.6-4.9,7.3-9.9,9-13.8c0-0.1,0-0.1,0.1-0.2c0.9-3,2.4-9.2,3-11.7c3.5,0.2,6.3,2.9,6.6,6.5c0.4,5.1,0.4,9.4-0.1,12.4
					c-0.2,0.8-0.9,2.1-1.6,3.5c-1.1,2.1-2.3,4.6-2.8,6.7c-0.2,1-0.1,2.6,0,4.9c0.4,7,1.1,18.7-6.9,22.9c-6.2,3.2-12.9,0.8-12.9,0.7
					c-0.7-0.3-1.6,0.1-1.8,0.8c-0.3,0.7,0.1,1.6,0.8,1.8c0.3,0.1,7.9,3,15.3-0.9c8.7-4.6,8.9-16,8.5-23.4l4.1,0
					c0.5,0,0.9-0.3,1.2-0.6c0,0,0.1,0,0.1,0c0.5-0.6,1.3-1,2.1-1H141c1.5,0,2.8,1.3,2.8,2.8V92c0,1.5-1.3,2.8-2.8,2.8h0
					c0.3,1,0.4,1.9,0.5,2.9c1.3,0.2,2.3,1.4,2.3,2.7v4.9c0,1.5-1.8,2.7-3.3,2.8c0,0.2,0,0.4,0,0.6c0,0.7,0.6,1.5,0.5,2.2h0
					C142.5,111,143.8,112.2,143.8,113.8z"/>
				<path d="M146.6,113.8v4.9c0,2.6-1.8,4.8-4.2,5.4c0.7,1,1.2,2.1,1.2,3.3v1.2c0,3.4-3,6.1-6.6,6.1c0,0,0,0,0,0
					c-1,0-37.2,0.1-47.7,0.1h0c-4,0-9.8-0.8-14.4-4.6c-6.9-5.7-18-3.4-18.1-3.4c-0.4,0.1-0.9,0-1.2-0.3c-0.3-0.3-0.5-0.7-0.5-1.1
					v-17.5c0-9.7,6.3-17.6,15.4-19.3c7-1.3,11.7-3.5,13.6-6.4c1.7-2.6,3.8-5.5,5.9-8.4c3.5-4.7,7.1-9.6,8.6-13.1
					c1.1-3.8,3.2-12.5,3.2-12.6c0.2-0.6,0.7-1.1,1.4-1.1h0.6c5.2,0,9.5,3.9,9.9,9.1c0.5,5.5,0.4,9.9-0.2,13.2c0,0,0,0.1,0,0.1
					c-0.3,1.1-1,2.5-1.8,4.2c-1,2-2.1,4.3-2.5,6.1c-0.1,0.5-0.1,1.9,0,3.4l3.7,0c1-1,2.4-1.6,3.9-1.6H141c3.1,0,5.6,2.5,5.6,5.6V92
					c0,1.7-0.7,3.2-1.9,4.2c1.2,1,1.9,2.5,1.9,4.2v4.9c0,1.7-0.7,3.2-1.9,4.2C145.9,110.6,146.6,112.1,146.6,113.8z M143.8,118.7
					v-4.9c0-1.5-1.3-2.8-2.8-2.8h0c0.1-0.7-0.6-1.5-0.5-2.2c0-0.2,0-0.4,0-0.6c1.5-0.1,3.3-1.3,3.3-2.8v-4.9c0-1.4-1-2.5-2.3-2.7
					c-0.1-1-0.3-1.9-0.5-2.9h0c1.5,0,2.8-1.3,2.8-2.8v-4.9c0-1.5-1.3-2.8-2.8-2.8h-24.1c-0.9,0-1.6,0.4-2.1,1c0,0-0.1,0-0.1,0
					c-0.3,0.4-0.7,0.6-1.2,0.6l-4.1,0c0.4,7.4,0.2,18.9-8.5,23.4c-7.4,3.9-15,1-15.3,0.9c-0.7-0.3-1.1-1.1-0.8-1.8
					c0.3-0.7,1.1-1.1,1.8-0.8c0.1,0,6.7,2.5,12.9-0.7c8-4.2,7.3-15.9,6.9-22.9c-0.1-2.3-0.2-3.9,0-4.9c0.5-2.2,1.7-4.6,2.8-6.7
					c0.7-1.4,1.4-2.8,1.6-3.5c0.5-3,0.6-7.3,0.1-12.4c-0.3-3.5-3.1-6.2-6.6-6.5c-0.6,2.5-2.1,8.7-3,11.7c0,0.1,0,0.1-0.1,0.2
					c-1.6,3.8-5.4,8.9-9,13.8c-2.1,2.8-4.2,5.7-5.8,8.2c-2.3,3.7-7.6,6.2-15.5,7.7c-7.8,1.4-12.8,7.3-13,16.5v15.8
					c3.7-0.5,12.6-0.9,18.8,4.3c4,3.3,9,4,12.6,4h0c5.3,0,17.1,0,27.7-0.1c10.5,0,19.8-0.1,20-0.1c0,0,0,0,0,0c2,0,3.7-1.5,3.7-3.3
					v-1.2c0-1.3-1.5-3-3.1-3.1l0-1.3l0-1.6h3.3C142.5,121.5,143.8,120.2,143.8,118.7z"/>
				<path class="st1" d="M70.6,95.3c8.8-1.5,15.3-3,18-7c1.8-2.8,3.6-6.7,6-9.8c4.1-5.4,8.3-11,10.2-15.3c0-0.1,0.1-0.1,0.1-0.2
					c0.9-2.9,0.8-13.1-0.6-13.2c-0.6,2.5-2.1,8.7-3,11.7c0,0.1,0,0.1-0.1,0.2c-1.6,3.8-5.4,8.9-9,13.8c-2.1,2.8-4.2,5.7-5.8,8.2
					c-2.3,3.7-7.6,6.2-15.5,7.7c-6.8,1.3-11.4,5.6-12.7,13.1C60.2,97.5,65.1,96.2,70.6,95.3z"/>
			</g>
			<g>
				<path class="st3" d="M137.8,84.3h-20.9c-0.9,0-1.6,0.4-2.1,1c0,0-0.1,0-0.1,0c-0.3,0.4-0.7,0.6-1.2,0.6l-4.1,0
					c0.4,7.4,0.2,18.9-8.5,23.4c-5.9,3.1-13.3,1.3-15.6,0.7c7.1,3.9,15,3.5,19.8,1.4c1.5-0.6,3.3,0.1,3.2,2.1l0.2,7.8
					c0,3.1,2.5,5.6,5.6,5.6l23.4,0c2.2,0,2.7,2.3,2.3,4c0.4-0.4,0.9-0.9,1.1-1.5c0.3-1.2,0-2.7,0-2.7c0,0,0-0.1-0.1-0.2
					c-0.3-1-1.7-2.3-2.9-2.3L137.8,84.3z"/>
			</g>
			<g>
				<path class="st0" d="M143.8,113.8v4.9c0,1.5-1.3,2.8-2.8,2.8h-24.1c-1.5,0-2.8-1.3-2.8-2.8v-4.9c0-1.5,1.3-2.8,2.8-2.8H141
					C142.5,111,143.8,112.2,143.8,113.8z M141.4,116.8v-0.5c0-0.6-0.5-1.1-1.1-1.1h-13.1c-0.6,0-1.1,0.5-1.1,1.1v0.5
					c0,0.6,0.5,1.1,1.1,1.1h13.1C140.9,117.9,141.4,117.4,141.4,116.8z"/>
				<path class="st0" d="M143.8,100.4v4.9c0,1.5-1.3,2.8-2.8,2.8h-24.1c-1.5,0-2.8-1.3-2.8-2.8v-4.9c0-1.5,1.3-2.8,2.8-2.8H141
					C142.5,97.6,143.8,98.9,143.8,100.4z M141.1,103.1v-0.5c0-0.6-0.5-1.1-1.1-1.1h-13.1c-0.6,0-1.1,0.5-1.1,1.1v0.5
					c0,0.6,0.5,1.1,1.1,1.1H140C140.6,104.2,141.1,103.7,141.1,103.1z"/>
				<path class="st0" d="M143.8,87.1V92c0,1.5-1.3,2.8-2.8,2.8h-24.1c-1.5,0-2.8-1.3-2.8-2.8v-4.9c0-1.5,1.3-2.8,2.8-2.8H141
					C142.5,84.3,143.8,85.5,143.8,87.1z M141.1,89.5v-0.5c0-0.6-0.5-1.1-1.1-1.1h-13.1c-0.6,0-1.1,0.5-1.1,1.1v0.5
					c0,0.6,0.5,1.1,1.1,1.1H140C140.6,90.6,141.1,90.1,141.1,89.5z"/>
				<path class="st1" d="M115.4,93.1v-4.9c0-1.5,1.3-2.8,2.8-2.8h24.1c0.4,0,0.7,0.1,1,0.2c-0.5-0.8-1.4-1.4-2.4-1.4h-24.1
					c-1.5,0-2.8,1.3-2.8,2.8V92c0,1.2,0.7,2.2,1.7,2.6C115.6,94.2,115.4,93.7,115.4,93.1z"/>
				<path class="st1" d="M115.4,106.5v-4.9c0-1.5,1.3-2.8,2.8-2.8h24.1c0.4,0,0.7,0.1,1,0.2c-0.5-0.8-1.4-1.4-2.4-1.4h-24.1
					c-1.5,0-2.8,1.3-2.8,2.8v4.9c0,1.2,0.7,2.2,1.7,2.6C115.6,107.5,115.4,107,115.4,106.5z"/>
				<path class="st1" d="M115.4,119.9v-4.9c0-1.5,1.3-2.8,2.8-2.8h24.1c0.4,0,0.7,0.1,1,0.2c-0.5-0.8-1.4-1.4-2.4-1.4h-24.1
					c-1.5,0-2.8,1.3-2.8,2.8v4.9c0,1.2,0.7,2.2,1.7,2.6C115.6,120.9,115.4,120.4,115.4,119.9z"/>
				<path d="M146.6,113.8v4.9c0,3.1-2.5,5.6-5.6,5.6h-9.8v6.4c0.9,0.5,1.5,1.4,1.5,2.5c0,1.6-1.3,2.9-2.9,2.9
					c-1.6,0-2.9-1.3-2.9-2.9c0-1,0.6-2,1.4-2.5v-6.5h-11.4c-3.1,0-5.6-2.5-5.6-5.6v-4.9c0-1.7,0.7-3.2,1.9-4.2
					c-1.2-1-1.9-2.5-1.9-4.2v-4.9c0-1.7,0.7-3.2,1.9-4.2c-1.2-1-1.9-2.5-1.9-4.2v-4.9c0-3.1,2.5-5.6,5.6-5.6H141
					c3.1,0,5.6,2.5,5.6,5.6V92c0,1.7-0.7,3.2-1.9,4.2c1.2,1,1.9,2.5,1.9,4.2v4.9c0,1.7-0.7,3.2-1.9,4.2
					C145.9,110.6,146.6,112.1,146.6,113.8z M143.8,118.7v-4.9c0-1.5-1.3-2.8-2.8-2.8h-24.1c-1.5,0-2.8,1.3-2.8,2.8v4.9
					c0,1.5,1.3,2.8,2.6,2.8h24.1C142.5,121.5,143.8,120.2,143.8,118.7z M143.8,105.4v-4.9c0-1.5-1.3-2.8-2.8-2.8h-24.1
					c-1.5,0-2.8,1.3-2.8,2.8v4.9c0,1.5,1.3,2.8,2.8,2.8H141C142.5,108.1,143.8,106.9,143.8,105.4z M143.8,92v-4.9
					c0-1.5-1.3-2.8-2.8-2.8h-24.1c-1.5,0-2.8,1.3-2.8,2.8V92c0,1.5,1.3,2.8,2.8,2.8H141C142.5,94.8,143.8,93.5,143.8,92z"/>
				<path class="st1" d="M141.9,116.8v0.5c0,0.6-0.5,1.1-1.1,1.1h-13.1c-0.6,0-1.1-0.5-1.1-1.1v-0.5c0-0.6,0.5-1.1,1.1-1.1h13.1
					C141.4,115.8,141.9,116.2,141.9,116.8z"/>
				<path class="st1" d="M141.6,103.2v0.5c0,0.6-0.5,1.1-1.1,1.1h-13.1c-0.6,0-1.1-0.5-1.1-1.1v-0.5c0-0.6,0.5-1.1,1.1-1.1h13.1
					C141.1,102.1,141.6,102.6,141.6,103.2z"/>
				<path class="st1" d="M141.6,89.6v0.5c0,0.6-0.5,1.1-1.1,1.1h-13.1c-0.6,0-1.1-0.5-1.1-1.1v-0.5c0-0.6,0.5-1.1,1.1-1.1h13.1
					C141.1,88.5,141.6,89,141.6,89.6z"/>
				<g>
					<path d="M141.4,116.3v0.5c0,0.6-0.5,1.1-1.1,1.1h-13.1c-0.6,0-1.1-0.5-1.1-1.1v-0.5c0-0.6,0.5-1.1,1.1-1.1h13.1
						C140.9,115.2,141.4,115.7,141.4,116.3z"/>
					<path d="M141.1,102.7v0.5c0,0.6-0.5,1.1-1.1,1.1h-13.1c-0.6,0-1.1-0.5-1.1-1.1v-0.5c0-0.6,0.5-1.1,1.1-1.1H140
						C140.6,101.6,141.1,102.1,141.1,102.7z"/>
					<path d="M141.1,89.1v0.5c0,0.6-0.5,1.1-1.1,1.1h-13.1c-0.6,0-1.1-0.5-1.1-1.1v-0.5c0-0.6,0.5-1.1,1.1-1.1H140
						C140.6,88,141.1,88.5,141.1,89.1z"/>
				</g>
				<circle class="st1" cx="122.8" cy="89.7" r="1.4"/>
				<circle class="st1" cx="122.8" cy="103.3" r="1.4"/>
				<circle class="st1" cx="121" cy="117" r="1.4"/>
				<circle class="st1" cx="118.8" cy="89.7" r="1.4"/>
				<circle class="st1" cx="118.8" cy="103.3" r="1.4"/>
				<g>
					<circle cx="120.5" cy="116.6" r="1.4"/>
					<circle cx="122.3" cy="89.3" r="1.4"/>
					<circle cx="122.3" cy="102.9" r="1.4"/>
					<circle cx="118.2" cy="89.3" r="1.4"/>
					<circle cx="118.2" cy="102.9" r="1.4"/>
				</g>
			</g>
		</g>
	</g>
</g>
<g id="Layer_1">
</g>
</svg>
