<?xml version="1.0" encoding="utf-8"?>
<!-- Generator: Adobe Illustrator 22.0.1, SVG Export Plug-In . SVG Version: 6.00 Build 0)  -->
<svg version="1.1" xmlns="http://www.w3.org/2000/svg" xmlns:xlink="http://www.w3.org/1999/xlink" x="0px" y="0px"
	 viewBox="0 0 202 202" style="enable-background:new 0 0 202 202;" xml:space="preserve">
<style type="text/css">
	.st0{fill:#27AACB;}
	.st1{fill:url(#SVGID_1_);fill-opacity:0.46;}
	.st2{fill:#DADADA;}
	.st3{fill:#FFFFFF;}
	.st4{opacity:0.85;fill:#DADADA;}
</style>
<g id="Layer_3">
	<g id="Icon_1_">
		<path class="st0" d="M167.3,64v74c0,16.2-13.1,29.4-29.4,29.4H64c-16.2,0-29.4-13.1-29.4-29.4V64c0-16.2,13.2-29.4,29.4-29.4h74
			C154.2,34.7,167.3,47.8,167.3,64z"/>
		<linearGradient id="SVGID_1_" gradientUnits="userSpaceOnUse" x1="137.6429" y1="179.1642" x2="100.5406" y2="109.1109">
			<stop  offset="0" style="stop-color:#27AACB"/>
			<stop  offset="0.4179" style="stop-color:#208DA7"/>
			<stop  offset="0.7771" style="stop-color:#1C7990"/>
			<stop  offset="1" style="stop-color:#1A7287"/>
		</linearGradient>
		<path class="st1" d="M167.3,118.1V138c0,16.2-13.1,29.4-29.4,29.4H76.3l-23-30.3l76-47.4c0.5,0.2,1.1,0.3,1.7,0.3
			c0.4,0,0.8-0.1,1.2-0.1c0.6,0.2,1.2,0.4,1.9,0.4c0.3,0,0.7,0,1,0c0.2,0,0.4,0,0.6,0c0.4,0,0.7,0,1,0c0.2,0,0.4,0,0.6,0
			c0.8,0,1.6-0.1,2.4-0.3c0.4,0.1,0.8,0.2,1.2,0.3h0.3c1.1,0.2,2.1,0.1,3.1-0.3c0.2,0,0.4,0,0.6-0.1c0.6,0.2,1.2,0.3,1.8,0.3
			c0.3,0,0.6,0,0.9,0L167.3,118.1z"/>
		<g>
			<g>
				<path class="st2" d="M147.2,123.1v5.3c0,1.6-1.3,3-3,3h-3.5l0,1.7l0,1.4c1.7,0.1,3.3,1.9,3.3,3.3v1.2c0,1.9-1.8,3.5-4,3.5
					c0,0,0,0,0,0c-0.2,0-10.1,0-21.4,0.1c-11.3,0-23.9,0.1-29.6,0.1h0c-3.8,0-9.3-0.7-13.5-4.3c-6.7-5.6-16.2-5.1-20.1-4.6v-17
					c0-9.5,5.6-16.1,13.9-17.6c8.5-1.6,14-4.3,16.5-8.2c1.7-2.7,4-5.8,6.2-8.8c3.8-5.2,7.8-10.6,9.6-14.7c0-0.1,0-0.1,0.1-0.2
					c0.9-3.2,2.5-9.8,3.2-12.5c3.7,0.3,6.7,3.2,7,6.9c0.5,5.5,0.4,10.1-0.1,13.3c-0.2,0.8-0.9,2.3-1.7,3.8c-1.1,2.3-2.4,4.9-3,7.2
					c-0.2,1.1-0.1,2.8,0,5.3c0.4,7.5,1.2,20-7.3,24.5c-6.6,3.5-13.8,0.8-13.8,0.8c-0.8-0.3-1.7,0.1-2,0.9c-0.3,0.8,0.1,1.7,0.9,2
					c0.3,0.1,8.5,3.2,16.3-0.9c9.3-4.9,9.5-17.1,9.1-25.1l4.4,0c0.5,0,1-0.3,1.3-0.7c0,0,0.1,0,0.1,0c0.5-0.6,1.4-1.1,2.3-1.1h25.8
					c1.6,0,3,1.3,3,3v5.3c0,1.6-1.3,3-3,3h0c0.3,1,0.4,2.1,0.6,3.1c1.4,0.2,2.5,1.5,2.5,2.9v5.3c0,1.6-2,2.9-3.5,3
					c0,0.2,0,0.5,0,0.7c0,0.8,0.6,1.6,0.5,2.4h0C145.9,120.2,147.2,121.5,147.2,123.1z"/>
				<path d="M150.3,123.1v5.3c0,2.8-1.9,5.1-4.4,5.8c0.8,1,1.3,2.3,1.3,3.6v1.2c0,3.6-3.2,6.5-7,6.5c0,0,0,0,0,0
					c-1,0-39.8,0.1-51,0.1h0c-4.3,0-10.5-0.9-15.4-5c-7.3-6.1-19.3-3.6-19.4-3.6c-0.4,0.1-0.9,0-1.3-0.3c-0.4-0.3-0.6-0.7-0.6-1.2
					v-18.7c0-10.4,6.8-18.8,16.4-20.6c7.5-1.4,12.5-3.8,14.5-6.9c1.8-2.8,4.1-5.9,6.3-9c3.7-5.1,7.6-10.3,9.2-14.1
					c1.1-4,3.4-13.4,3.4-13.5c0.2-0.7,0.8-1.2,1.5-1.2h0.6c5.6,0,10.1,4.2,10.6,9.7c0.5,5.8,0.4,10.6-0.2,14.1c0,0,0,0.1,0,0.1
					c-0.3,1.2-1,2.7-1.9,4.4c-1.1,2.1-2.3,4.6-2.7,6.5c-0.1,0.6-0.1,2,0,3.6l4,0c1.1-1.1,2.6-1.7,4.2-1.7h25.8c3.3,0,6,2.7,6,6v5.3
					c0,1.8-0.8,3.4-2,4.5c1.2,1.1,2,2.7,2,4.5v5.3c0,1.8-0.8,3.4-2,4.5C149.5,119.7,150.3,121.4,150.3,123.1z M147.2,128.4v-5.3
					c0-1.6-1.3-3-3-3h0c0.1-0.8-0.6-1.6-0.5-2.4c0-0.2,0-0.5,0-0.7c1.6-0.1,3.5-1.4,3.5-3v-5.3c0-1.5-1.1-2.7-2.5-2.9
					c-0.1-1-0.3-2.1-0.6-3.1h0c1.6,0,3-1.3,3-3v-5.3c0-1.7-1.3-3-3-3h-25.8c-0.9,0-1.7,0.4-2.3,1.1c0,0-0.1,0-0.1,0
					c-0.3,0.4-0.7,0.7-1.3,0.7l-4.4,0c0.4,8,0.2,20.2-9.1,25.1c-7.9,4.1-16,1.1-16.3,0.9c-0.8-0.3-1.2-1.2-0.9-2
					c0.3-0.8,1.2-1.2,2-0.9c0.1,0,7.2,2.7,13.8-0.8c8.5-4.5,7.8-17,7.3-24.5c-0.1-2.4-0.2-4.2,0-5.3c0.5-2.3,1.8-4.9,3-7.2
					c0.7-1.5,1.5-2.9,1.7-3.8c0.5-3.2,0.6-7.8,0.1-13.3c-0.3-3.8-3.3-6.7-7-6.9c-0.7,2.7-2.3,9.3-3.2,12.5c0,0.1,0,0.1-0.1,0.2
					c-1.8,4.1-5.7,9.5-9.6,14.7c-2.2,3-4.5,6.1-6.2,8.8c-2.5,3.9-8.1,6.7-16.5,8.2c-8.3,1.5-13.7,7.8-13.9,17.6v17
					c4-0.5,13.5-1,20.1,4.6c4.2,3.5,9.7,4.3,13.5,4.3h0c5.6,0,18.3,0,29.6-0.1c11.3,0,21.2-0.1,21.4-0.1c0,0,0,0,0,0
					c2.2,0,4-1.6,4-3.5v-1.2c0-1.4-1.6-3.2-3.3-3.3l0-1.4l0-1.7h3.5C145.9,131.4,147.2,130.1,147.2,128.4z"/>
				<path class="st3" d="M68.9,103.4c9.5-1.6,16.4-3.2,19.3-7.5c2-3,3.9-7.1,6.4-10.5c4.4-5.8,8.9-11.8,10.9-16.3
					c0-0.1,0.1-0.1,0.1-0.2c0.9-3.1,0.9-14-0.6-14.1c-0.7,2.7-2.3,9.3-3.2,12.5c0,0.1,0,0.1-0.1,0.2c-1.8,4.1-5.7,9.5-9.6,14.7
					c-2.2,3-4.5,6.1-6.2,8.8c-2.5,3.9-8.1,6.7-16.5,8.2c-7.3,1.3-12.2,6-13.5,14C57.8,105.7,63,104.3,68.9,103.4z"/>
			</g>
			<g>
				<path class="st4" d="M140.8,91.6h-22.4c-0.9,0-1.7,0.4-2.3,1.1c0,0-0.1,0-0.1,0c-0.3,0.4-0.7,0.7-1.3,0.7l-4.4,0
					c0.4,8,0.2,20.2-9.1,25.1c-6.3,3.3-14.2,1.4-16.7,0.7c7.6,4.2,16,3.7,21.1,1.5c1.6-0.7,3.5,0.1,3.4,2.3l0.2,8.4c0,3.3,2.7,6,6,6
					l25,0c2.4,0,2.9,2.4,2.4,4.3c0.4-0.4,1-1,1.2-1.6c0.4-1.3,0-2.9,0-2.9c0,0,0-0.1-0.1-0.2c-0.3-1-1.8-2.5-3.1-2.5L140.8,91.6z"/>
			</g>
			<g>
				<path class="st0" d="M147.2,123.1v5.3c0,1.6-1.3,3-3,3h-25.8c-1.6,0-3-1.3-3-3v-5.3c0-1.6,1.3-3,3-3h25.8
					C145.9,120.2,147.2,121.5,147.2,123.1z M144.7,126.4v-0.5c0-0.6-0.5-1.1-1.1-1.1h-14.1c-0.6,0-1.1,0.5-1.1,1.1v0.5
					c0,0.6,0.5,1.1,1.1,1.1h14.1C144.2,127.5,144.7,127,144.7,126.4z"/>
				<path class="st0" d="M147.2,108.9v5.3c0,1.6-1.3,3-3,3h-25.8c-1.6,0-3-1.3-3-3v-5.3c0-1.6,1.3-3,3-3h25.8
					C145.9,105.9,147.2,107.2,147.2,108.9z M144.3,111.8v-0.5c0-0.6-0.5-1.1-1.1-1.1h-14.1c-0.6,0-1.1,0.5-1.1,1.1v0.5
					c0,0.6,0.5,1.1,1.1,1.1h14.1C143.8,112.9,144.3,112.4,144.3,111.8z"/>
				<path class="st0" d="M147.2,94.6v5.3c0,1.6-1.3,3-3,3h-25.8c-1.6,0-3-1.3-3-3v-5.3c0-1.7,1.3-3,3-3h25.8
					C145.9,91.6,147.2,92.9,147.2,94.6z M144.3,97.2v-0.5c0-0.6-0.5-1.1-1.1-1.1h-14.1c-0.6,0-1.1,0.5-1.1,1.1v0.5
					c0,0.6,0.5,1.1,1.1,1.1h14.1C143.8,98.3,144.3,97.8,144.3,97.2z"/>
				<path class="st3" d="M116.9,101.1v-5.3c0-1.7,1.3-3,3-3h25.8c0.4,0,0.8,0.1,1.1,0.2c-0.5-0.9-1.5-1.4-2.5-1.4h-25.8
					c-1.6,0-3,1.3-3,3v5.3c0,1.3,0.8,2.3,1.9,2.8C117,102.2,116.9,101.6,116.9,101.1z"/>
				<path class="st3" d="M116.9,115.4v-5.3c0-1.7,1.3-3,3-3h25.8c0.4,0,0.8,0.1,1.1,0.2c-0.5-0.9-1.5-1.4-2.5-1.4h-25.8
					c-1.6,0-3,1.3-3,3v5.3c0,1.3,0.8,2.3,1.9,2.8C117,116.4,116.9,115.9,116.9,115.4z"/>
				<path class="st3" d="M116.9,129.6v-5.3c0-1.7,1.3-3,3-3h25.8c0.4,0,0.8,0.1,1.1,0.2c-0.5-0.9-1.5-1.4-2.5-1.4h-25.8
					c-1.6,0-3,1.3-3,3v5.3c0,1.3,0.8,2.3,1.9,2.8C117,130.7,116.9,130.2,116.9,129.6z"/>
				<path d="M150.3,123.1v5.3c0,3.3-2.7,6-6,6h-10.5v6.9c1,0.5,1.6,1.5,1.6,2.7c0,1.7-1.4,3.1-3.1,3.1c-1.7,0-3.1-1.4-3.1-3.1
					c0-1.1,0.6-2.1,1.5-2.6v-7h-12.2c-3.3,0-6-2.7-6-6v-5.3c0-1.8,0.8-3.4,2-4.5c-1.2-1.1-2-2.7-2-4.5v-5.3c0-1.8,0.8-3.4,2-4.5
					c-1.2-1.1-2-2.7-2-4.5v-5.3c0-3.3,2.7-6,6-6h25.8c3.3,0,6,2.7,6,6v5.3c0,1.8-0.8,3.4-2,4.5c1.2,1.1,2,2.7,2,4.5v5.3
					c0,1.8-0.8,3.4-2,4.5C149.5,119.7,150.3,121.4,150.3,123.1z M147.2,128.4v-5.3c0-1.6-1.3-3-3-3h-25.8c-1.6,0-3,1.3-3,3v5.3
					c0,1.6,1.3,3,2.7,3H144C145.9,131.4,147.2,130.1,147.2,128.4z M147.2,114.1v-5.3c0-1.6-1.3-3-3-3h-25.8c-1.6,0-3,1.3-3,3v5.3
					c0,1.6,1.3,3,3,3h25.8C145.9,117.1,147.2,115.8,147.2,114.1z M147.2,99.9v-5.3c0-1.7-1.3-3-3-3h-25.8c-1.6,0-3,1.3-3,3v5.3
					c0,1.6,1.3,3,3,3h25.8C145.9,102.8,147.2,101.5,147.2,99.9z"/>
				<path class="st3" d="M145.2,126.4v0.5c0,0.6-0.5,1.1-1.1,1.1H130c-0.6,0-1.1-0.5-1.1-1.1v-0.5c0-0.6,0.5-1.1,1.1-1.1h14.1
					C144.7,125.3,145.2,125.8,145.2,126.4z"/>
				<path class="st3" d="M144.8,111.8v0.5c0,0.6-0.5,1.1-1.1,1.1h-14.1c-0.6,0-1.1-0.5-1.1-1.1v-0.5c0-0.6,0.5-1.1,1.1-1.1h14.1
					C144.3,110.7,144.8,111.2,144.8,111.8z"/>
				<path class="st3" d="M144.8,97.3v0.5c0,0.6-0.5,1.1-1.1,1.1h-14.1c-0.6,0-1.1-0.5-1.1-1.1v-0.5c0-0.6,0.5-1.1,1.1-1.1h14.1
					C144.3,96.1,144.8,96.6,144.8,97.3z"/>
				<g>
					<path d="M144.7,125.9v0.5c0,0.6-0.5,1.1-1.1,1.1h-14.1c-0.6,0-1.1-0.5-1.1-1.1v-0.5c0-0.6,0.5-1.1,1.1-1.1h14.1
						C144.2,124.7,144.7,125.2,144.7,125.9z"/>
					<path d="M144.3,111.2v0.5c0,0.6-0.5,1.1-1.1,1.1h-14.1c-0.6,0-1.1-0.5-1.1-1.1v-0.5c0-0.6,0.5-1.1,1.1-1.1h14.1
						C143.8,110.1,144.3,110.6,144.3,111.2z"/>
					<path d="M144.3,96.7v0.5c0,0.6-0.5,1.1-1.1,1.1h-14.1c-0.6,0-1.1-0.5-1.1-1.1v-0.5c0-0.6,0.5-1.1,1.1-1.1h14.1
						C143.8,95.6,144.3,96.1,144.3,96.7z"/>
				</g>
				<circle class="st3" cx="124.8" cy="97.4" r="1.5"/>
				<circle class="st3" cx="124.8" cy="111.9" r="1.5"/>
				<circle class="st3" cx="122.8" cy="126.6" r="1.5"/>
				<circle class="st3" cx="120.5" cy="97.4" r="1.5"/>
				<circle class="st3" cx="120.5" cy="111.9" r="1.5"/>
				<g>
					<circle cx="122.3" cy="126.1" r="1.5"/>
					<circle cx="124.3" cy="96.9" r="1.5"/>
					<circle cx="124.3" cy="111.5" r="1.5"/>
					<circle cx="119.9" cy="96.9" r="1.5"/>
					<circle cx="119.9" cy="111.5" r="1.5"/>
				</g>
			</g>
		</g>
	</g>
</g>
<g id="Layer_2">
</g>
<g id="Layer_1">
</g>
</svg>
