<?xml version="1.0" encoding="utf-8"?>
<!-- Generator: Adobe Illustrator 22.0.1, SVG Export Plug-In . SVG Version: 6.00 Build 0)  -->
<svg version="1.1" id="Layer_1" xmlns="http://www.w3.org/2000/svg" xmlns:xlink="http://www.w3.org/1999/xlink" x="0px" y="0px"
	 viewBox="0 0 298.7 337.3" style="enable-background:new 0 0 298.7 337.3;" xml:space="preserve">
<style type="text/css">
	.st0{fill:#27AACB;}
</style>
<g>
	<g>
		<path d="M248.5,150v-10c0-7.1-5.8-12.9-12.9-12.9h-52.4c-3.5,0-6.6,1.4-8.9,3.6c0,0-0.1,0-0.1,0c0,0,0,0,0,0l-8.4,0
			c-0.2-3.4-0.3-6.4-0.1-7.5c0.9-4.1,3.4-9.1,5.6-13.5c1.8-3.7,3.4-6.8,4-9.2c0-0.1,0-0.2,0-0.2c1.3-7.3,1.4-17.1,0.3-29.2
			c-1-11.5-10.4-20.1-21.9-20.1h-1.3c-1.5,0-2.7,1-3.1,2.4c0,0.2-4.7,19.5-7.1,27.9c-3.4,7.8-11.3,18.6-19,29.1
			c-4.6,6.3-9.4,12.8-13.1,18.6c-4.2,6.5-14.5,11.4-30,14.2c-20,3.7-34,21.2-34,42.6v38.7c0,0.9,0.4,1.8,1.2,2.4
			c0.7,0.6,1.7,0.8,2.6,0.6c0.2-0.1,25-5.1,40.1,7.5c10.2,8.5,23,10.3,31.9,10.3c0,0,0,0,0,0c15.8,0,57.9-0.1,83.9-0.2
			c1.1,1.9,3.2,3.2,5.5,3.2c2.4,0,4.4-1.3,5.5-3.2c6.1,0,10,0,10.5,0c0,0,0,0,0,0c8,0,14.5-6.1,14.5-13.5v-2.5c0-2.7-1-5.3-2.7-7.4
			c5.3-1.6,9.3-6.5,9.3-12.4v-10c0-3.9-1.7-7.4-4.5-9.8c2.7-2.4,4.5-5.9,4.5-9.8v-10c0-3.9-1.7-7.4-4.5-9.8
			C246.8,157.4,248.5,153.9,248.5,150z M121.9,238.9C121.9,238.9,121.9,238.9,121.9,238.9c-7.9,0-19.2-1.5-27.9-8.8
			c-13.8-11.5-33.4-10.5-41.6-9.4v-35c0-18.6,11.6-33.3,28.8-36.4c17.5-3.2,29-8.9,34.2-17c3.6-5.6,8.3-12,12.9-18.2
			c7.9-10.8,16.2-22,19.8-30.5c0.1-0.1,0.1-0.2,0.1-0.4c1.9-6.7,5.3-20.3,6.6-25.9c7.7,0.5,13.8,6.5,14.5,14.3
			c1,11.3,0.9,20.8-0.3,27.4c-0.5,1.8-1.9,4.7-3.5,7.8c-2.3,4.7-5,10.1-6.1,14.9c-0.5,2.2-0.3,5.9,0,10.9
			c0.9,15.5,2.5,41.4-15.2,50.6c-13.6,7.1-28.3,1.8-28.6,1.6c-1.6-0.6-3.4,0.2-4.1,1.8c-0.6,1.6,0.2,3.4,1.8,4.1
			c0.7,0.3,17.5,6.6,33.8-1.9c19.3-10.1,19.6-35.4,18.8-51.8l4.5,0c-0.2,1-0.4,2-0.4,3v10c0,3.9,1.7,7.4,4.5,9.8
			c-2.7,2.4-4.5,5.9-4.5,9.8v10c0,3.9,1.7,7.4,4.5,9.8c-2.7,2.4-4.5,5.9-4.5,9.8v10c0,7.1,5.8,12.9,12.9,12.9H208l0,14.4
			c-1,0.6-1.7,1.4-2.3,2.4C179.8,238.8,137.7,238.9,121.9,238.9z M235.6,231.4c0,4-3.7,7.2-8.2,7.2c0,0,0,0,0,0c0,0,0,0,0,0
			c-0.2,0-4.1,0-10.5,0c-0.6-1.1-1.5-1.9-2.6-2.5l0-14.2h7.6c0,0,0,0,0,0h6.6c3.7,0.1,7.1,3.9,7.1,6.9V231.4z M242.2,209
			c0,3.6-3,6.6-6.6,6.6h-7c-0.1,0-0.1,0-0.2,0l-6.4,0h-38.8c-3.6,0-6.6-3-6.6-6.6v-10c0-3.6,3-6.6,6.6-6.6h52.4c3.6,0,6.6,3,6.6,6.6
			V209z M242.2,179.5c0,3.6-3,6.6-6.6,6.6h-52.4c-3.6,0-6.6-3-6.6-6.6v-10c0-3.6,3-6.6,6.6-6.6h52.4c3.6,0,6.6,3,6.6,6.6V179.5z
			 M242.2,150c0,3.6-3,6.6-6.6,6.6h-52.4c-3.6,0-6.6-3-6.6-6.6v-10c0-3.6,3-6.6,6.6-6.6h52.4c3.6,0,6.6,3,6.6,6.6V150z"/>
		<path d="M235.4,201.8h-30.6c-0.9,0-1.6,0.7-1.6,1.6v2.6c0,0.9,0.7,1.6,1.6,1.6h30.6c0.9,0,1.6-0.7,1.6-1.6v-2.6
			C237,202.6,236.3,201.8,235.4,201.8z"/>
		<path d="M190.7,201.7c-1.7,0-3.1,1.4-3.1,3.1c0,1.7,1.4,3.1,3.1,3.1c1.7,0,3.1-1.4,3.1-3.1C193.8,203.1,192.4,201.7,190.7,201.7z"
			/>
		<path d="M234.6,171.6h-30.6c-0.9,0-1.6,0.7-1.6,1.6v2.6c0,0.9,0.7,1.6,1.6,1.6h30.6c0.9,0,1.6-0.7,1.6-1.6v-2.6
			C236.2,172.4,235.5,171.6,234.6,171.6z"/>
		<path d="M194.8,171.4c-1.7,0-3.1,1.4-3.1,3.1c0,1.7,1.4,3.1,3.1,3.1c1.7,0,3.1-1.4,3.1-3.1C197.9,172.8,196.5,171.4,194.8,171.4z"
			/>
		<path d="M185.8,171.4c-1.7,0-3.1,1.4-3.1,3.1c0,1.7,1.4,3.1,3.1,3.1c1.7,0,3.1-1.4,3.1-3.1C188.9,172.8,187.5,171.4,185.8,171.4z"
			/>
		<path d="M234.6,141.5h-30.6c-0.9,0-1.6,0.7-1.6,1.6v2.6c0,0.9,0.7,1.6,1.6,1.6h30.6c0.9,0,1.6-0.7,1.6-1.6v-2.6
			C236.2,142.3,235.5,141.5,234.6,141.5z"/>
		<path d="M194.8,141.3c-1.7,0-3.1,1.4-3.1,3.1c0,1.7,1.4,3.1,3.1,3.1c1.7,0,3.1-1.4,3.1-3.1C197.9,142.7,196.5,141.3,194.8,141.3z"
			/>
		<path d="M185.8,141.3c-1.7,0-3.1,1.4-3.1,3.1c0,1.7,1.4,3.1,3.1,3.1c1.7,0,3.1-1.4,3.1-3.1C188.9,142.7,187.5,141.3,185.8,141.3z"
			/>
	</g>
	<g>
		<path class="st0" d="M83.3,277.7v4.6H58.6v-3.6l17.1-20.8H58.8v-4.6h23.9v3.6l-17.1,20.8H83.3z"/>
		<path class="st0" d="M103.5,272.1v10.2h-4.3v-4.5h-8.5v4.5h-4.3v-10.2c0-5.7,3.4-8.8,8.5-8.8C100,263.3,103.5,266.4,103.5,272.1z
			 M99.2,274.4v-2.7c0-3.2-1.7-4.7-4.3-4.7c-2.6,0-4.3,1.5-4.3,4.7v2.7H99.2z"/>
		<path class="st0" d="M124.7,271.4v10.9h-4.3v-10.8c0-3.1-1.5-4.5-4-4.5c-2.5,0-4.3,1.5-4.3,4.8v10.5h-4.3v-18.6h4.2v2.3
			c1.3-1.7,3.2-2.6,5.7-2.6C122,263.3,124.7,266.2,124.7,271.4z"/>
		<path d="M152.6,270.4c0,4.2-3.1,6.7-8.1,6.7h-3.8v5.1h-4.3v-18.6h8.1C149.5,263.6,152.6,266.2,152.6,270.4z M148.3,270.4
			c0-2.1-1.3-3.2-4-3.2h-3.5v6.5h3.5C146.9,273.6,148.3,272.4,148.3,270.4z"/>
		<path d="M167.6,282.3l-3.6-5.2h-0.2H160v5.2h-4.3v-18.6h8.1c5,0,8.1,2.6,8.1,6.8c0,2.8-1.4,4.8-3.8,5.9l4.2,6H167.6z M163.5,267.2
			H160v6.5h3.5c2.6,0,4-1.2,4-3.2C167.5,268.4,166.2,267.2,163.5,267.2z"/>
		<path d="M174.1,273c0-5.5,4.3-9.6,10.2-9.6c5.9,0,10.2,4.1,10.2,9.6c0,5.6-4.3,9.6-10.2,9.6C178.4,282.6,174.1,278.5,174.1,273z
			 M190.1,273c0-3.5-2.5-6-5.8-6c-3.3,0-5.8,2.4-5.8,6c0,3.5,2.5,6,5.8,6C187.6,278.9,190.1,276.5,190.1,273z"/>
		<path d="M208.8,282.3l-4.5-6.5l-4.4,6.5h-5l6.9-9.5l-6.6-9.2h4.9l4.3,6l4.2-6h4.7l-6.5,9l6.9,9.6H208.8z"/>
		<path d="M232.3,263.6v12.8c0,5.7-3.4,8.7-8.8,8.7c-3.2,0-5.9-1-7.7-2.5l1.7-3.2c1.7,1.4,3.7,2,5.9,2c3.1,0,4.6-1.5,4.6-4.8v-1.1
			c-1.3,1.5-3.1,2.3-5.3,2.3c-4.7,0-7.3-2.7-7.3-7.8v-6.4h4.3v6.1c0,3,1.5,4.4,4,4.4c2.5,0,4.3-1.4,4.3-4.7v-5.8H232.3z"/>
	</g>
</g>
</svg>
